<svg xmlns="http://www.w3.org/2000/svg" xmlns:xlink="http://www.w3.org/1999/xlink" contentStyleType="text/css" height="719px" preserveAspectRatio="none" style="width:1475px;height:719px;background:#FFFFFF;" version="1.1" viewBox="0 0 1475 719" width="1475px" zoomAndPan="magnify"><defs/><g><!--cluster ee434023cf89d7dfb21f63d64f0f9d74--><g id="cluster_ee434023cf89d7dfb21f63d64f0f9d74"><polygon fill="none" points="16,73.04,26,63.04,349,63.04,349,601.26,339,611.26,16,611.26,16,73.04" style="stroke:#181818;stroke-width:1.0;"/><line style="stroke:#181818;stroke-width:1.0;" x1="339" x2="349" y1="73.04" y2="63.04"/><line style="stroke:#181818;stroke-width:1.0;" x1="16" x2="339" y1="73.04" y2="73.04"/><line style="stroke:#181818;stroke-width:1.0;" x1="339" x2="339" y1="73.04" y2="611.26"/><text fill="#000000" font-family="sans-serif" font-size="14" font-weight="bold" lengthAdjust="spacing" textLength="44" x="156.5" y="89.0351">Nginx</text></g><!--cluster e8a48653851e28c69d0506508fb27fc5--><g id="cluster_e8a48653851e28c69d0506508fb27fc5"><polygon fill="none" points="435,16,445,6,825,6,825,601.26,815,611.26,435,611.26,435,16" style="stroke:#181818;stroke-width:1.0;"/><line style="stroke:#181818;stroke-width:1.0;" x1="815" x2="825" y1="16" y2="6"/><line style="stroke:#181818;stroke-width:1.0;" x1="435" x2="815" y1="16" y2="16"/><line style="stroke:#181818;stroke-width:1.0;" x1="815" x2="815" y1="16" y2="611.26"/><text fill="#000000" font-family="sans-serif" font-size="14" font-weight="bold" lengthAdjust="spacing" textLength="71" x="590.5" y="31.9951">Postgres</text></g><!--cluster 96129842b3eec6c44f96a11e345eefab--><g id="cluster_96129842b3eec6c44f96a11e345eefab"><polygon fill="none" points="879,64.89,889,54.89,1035,54.89,1035,363.97,1025,373.97,879,373.97,879,64.89" style="stroke:#181818;stroke-width:1.0;"/><line style="stroke:#181818;stroke-width:1.0;" x1="1025" x2="1035" y1="64.89" y2="54.89"/><line style="stroke:#181818;stroke-width:1.0;" x1="879" x2="1025" y1="64.89" y2="64.89"/><line style="stroke:#181818;stroke-width:1.0;" x1="1025" x2="1025" y1="64.89" y2="373.97"/><text fill="#000000" font-family="sans-serif" font-size="14" font-weight="bold" lengthAdjust="spacing" textLength="63" x="921.5" y="80.8851">Redisdb</text></g><!--cluster 2567a5ec9705eb7ac2c984033e06189d--><g id="cluster_2567a5ec9705eb7ac2c984033e06189d"><polygon fill="none" points="1245,73.04,1255,63.04,1407,63.04,1407,601.26,1397,611.26,1245,611.26,1245,73.04" style="stroke:#181818;stroke-width:1.0;"/><line style="stroke:#181818;stroke-width:1.0;" x1="1397" x2="1407" y1="73.04" y2="63.04"/><line style="stroke:#181818;stroke-width:1.0;" x1="1245" x2="1397" y1="73.04" y2="73.04"/><line style="stroke:#181818;stroke-width:1.0;" x1="1397" x2="1397" y1="73.04" y2="611.26"/><text fill="#000000" font-family="sans-serif" font-size="14" font-weight="bold" lengthAdjust="spacing" textLength="35" x="1304.5" y="89.0351">Web</text></g><!--cluster d48bac364ad5e16c8a0b13f87d5ae9d5--><g id="cluster_d48bac364ad5e16c8a0b13f87d5ae9d5"><polygon fill="none" points="1059,73.04,1069,63.04,1221,63.04,1221,601.26,1211,611.26,1059,611.26,1059,73.04" style="stroke:#181818;stroke-width:1.0;"/><line style="stroke:#181818;stroke-width:1.0;" x1="1211" x2="1221" y1="73.04" y2="63.04"/><line style="stroke:#181818;stroke-width:1.0;" x1="1059" x2="1211" y1="73.04" y2="73.04"/><line style="stroke:#181818;stroke-width:1.0;" x1="1211" x2="1211" y1="73.04" y2="611.26"/><text fill="#000000" font-family="sans-serif" font-size="14" font-weight="bold" lengthAdjust="spacing" textLength="51" x="1110.5" y="89.0351">Celery</text></g><!--entity af7a7f0b3b2e57bd500b4dc604f1838f--><g id="elem_af7a7f0b3b2e57bd500b4dc604f1838f"><rect fill="#F1F1F1" height="78.8906" rx="2.5" ry="2.5" style="stroke:#181818;stroke-width:0.5;" width="83" x="201.5" y="103.04"/><rect fill="#F1F1F1" height="10" style="stroke:#181818;stroke-width:0.5;" width="15" x="264.5" y="108.04"/><rect fill="#F1F1F1" height="2" style="stroke:#181818;stroke-width:0.5;" width="4" x="262.5" y="110.04"/><rect fill="#F1F1F1" height="2" style="stroke:#181818;stroke-width:0.5;" width="4" x="262.5" y="114.04"/><text fill="#000000" font-family="sans-serif" font-size="14" font-weight="bold" lengthAdjust="spacing" textLength="43" x="216.5" y="136.0351">nginx</text><text fill="#000000" font-family="sans-serif" font-size="14" lengthAdjust="spacing" textLength="4" x="216.5" y="152.332">&#160;</text><text fill="#000000" font-family="sans-serif" font-size="14" lengthAdjust="spacing" textLength="4" x="216.5" y="168.6289">&#160;</text></g><!--entity 97b04832e42a04c7beb04c21e560b3fb--><g id="elem_97b04832e42a04c7beb04c21e560b3fb"><ellipse cx="306" cy="328.97" fill="#F1F1F1" rx="8" ry="8" style="stroke:#181818;stroke-width:0.5;"/><text fill="#000000" font-family="sans-serif" font-size="14" lengthAdjust="spacing" textLength="18" x="297" y="358.9651">80</text></g><!--entity 0ce7713bd005f3e5d60cfdcc4ded6604--><g id="elem_0ce7713bd005f3e5d60cfdcc4ded6604"><rect fill="#F1F1F1" height="39.2969" rx="2.5" ry="2.5" style="stroke:#181818;stroke-width:0.5;" width="136" x="32" y="555.97"/><polygon fill="#F1F1F1" points="151,560.97,151,574.97,163,574.97,163,566.97,157,560.97,151,560.97" style="stroke:#181818;stroke-width:0.5;"/><line style="stroke:#181818;stroke-width:0.5;" x1="157" x2="157" y1="560.97" y2="566.97"/><line style="stroke:#181818;stroke-width:0.5;" x1="163" x2="157" y1="566.97" y2="566.97"/><text fill="#000000" font-family="sans-serif" font-size="14" lengthAdjust="spacing" textLength="106" x="42" y="581.9651">/superb/media/</text></g><!--entity bbca5c38524576ee350a6571424c62a6--><g id="elem_bbca5c38524576ee350a6571424c62a6"><rect fill="#F1F1F1" height="39.2969" rx="2.5" ry="2.5" style="stroke:#181818;stroke-width:0.5;" width="131" x="202.5" y="555.97"/><polygon fill="#F1F1F1" points="316.5,560.97,316.5,574.97,328.5,574.97,328.5,566.97,322.5,560.97,316.5,560.97" style="stroke:#181818;stroke-width:0.5;"/><line style="stroke:#181818;stroke-width:0.5;" x1="322.5" x2="322.5" y1="560.97" y2="566.97"/><line style="stroke:#181818;stroke-width:0.5;" x1="328.5" x2="322.5" y1="566.97" y2="566.97"/><text fill="#000000" font-family="sans-serif" font-size="14" lengthAdjust="spacing" textLength="101" x="212.5" y="581.9651">/superb/static/</text></g><!--entity 086f471fbe3ab94b73c9798cd7d205b7--><g id="elem_086f471fbe3ab94b73c9798cd7d205b7"><rect fill="#F1F1F1" height="192.9688" rx="2.5" ry="2.5" style="stroke:#181818;stroke-width:0.5;" width="358" x="451" y="46"/><rect fill="#F1F1F1" height="10" style="stroke:#181818;stroke-width:0.5;" width="15" x="789" y="51"/><rect fill="#F1F1F1" height="2" style="stroke:#181818;stroke-width:0.5;" width="4" x="787" y="53"/><rect fill="#F1F1F1" height="2" style="stroke:#181818;stroke-width:0.5;" width="4" x="787" y="57"/><text fill="#000000" font-family="sans-serif" font-size="14" font-weight="bold" lengthAdjust="spacing" textLength="71" x="466" y="78.9951">postgres</text><text fill="#000000" font-family="sans-serif" font-size="14" lengthAdjust="spacing" textLength="4" x="466" y="95.292">&#160;</text><text fill="#000000" font-family="sans-serif" font-size="14" lengthAdjust="spacing" textLength="182" x="466" y="111.5889">image: postgres:15-alpine</text><text fill="#000000" font-family="sans-serif" font-size="14" lengthAdjust="spacing" textLength="99" x="466" y="127.8857">restart: always</text><text fill="#000000" font-family="sans-serif" font-size="14" lengthAdjust="spacing" textLength="293" x="466" y="144.1826">environment: POSTGRES_DB=postgresdb</text><text fill="#000000" font-family="sans-serif" font-size="14" lengthAdjust="spacing" textLength="272" x="466" y="160.4795">environment: POSTGRES_USER=admin</text><text fill="#000000" font-family="sans-serif" font-size="14" lengthAdjust="spacing" textLength="318" x="466" y="176.7764">environment: POSTGRES_PASSWORD=12345</text><text fill="#000000" font-family="sans-serif" font-size="14" lengthAdjust="spacing" textLength="291" x="466" y="193.0732">environment: VIRTUAL_HOST=postgresdb</text><text fill="#000000" font-family="sans-serif" font-size="14" lengthAdjust="spacing" textLength="247" x="466" y="209.3701">environment: VIRTUAL_PORT=5432</text><text fill="#000000" font-family="sans-serif" font-size="14" lengthAdjust="spacing" textLength="4" x="466" y="225.667">&#160;</text></g><!--entity 9c41b0dc0d9393d8a4c1a8e0ff9f1547--><g id="elem_9c41b0dc0d9393d8a4c1a8e0ff9f1547"><ellipse cx="737" cy="328.97" fill="#F1F1F1" rx="8" ry="8" style="stroke:#181818;stroke-width:0.5;"/><text fill="#000000" font-family="sans-serif" font-size="14" lengthAdjust="spacing" textLength="36" x="719" y="358.9651">5432</text></g><!--entity be37e40b068362ad529067845ac94bd0--><g id="elem_be37e40b068362ad529067845ac94bd0"><rect fill="#F1F1F1" height="39.2969" rx="2.5" ry="2.5" style="stroke:#181818;stroke-width:0.5;" width="189" x="535.5" y="555.97"/><polygon fill="#F1F1F1" points="707.5,560.97,707.5,574.97,719.5,574.97,719.5,566.97,713.5,560.97,707.5,560.97" style="stroke:#181818;stroke-width:0.5;"/><line style="stroke:#181818;stroke-width:0.5;" x1="713.5" x2="713.5" y1="560.97" y2="566.97"/><line style="stroke:#181818;stroke-width:0.5;" x1="719.5" x2="713.5" y1="566.97" y2="566.97"/><text fill="#000000" font-family="sans-serif" font-size="14" lengthAdjust="spacing" textLength="159" x="545.5" y="581.9651">/var/lib/postgresql/data</text></g><!--entity 03f627c9591624f131d65303590644fa--><g id="elem_03f627c9591624f131d65303590644fa"><rect fill="#F1F1F1" height="95.1875" rx="2.5" ry="2.5" style="stroke:#181818;stroke-width:0.5;" width="125" x="894.5" y="94.89"/><rect fill="#F1F1F1" height="10" style="stroke:#181818;stroke-width:0.5;" width="15" x="999.5" y="99.89"/><rect fill="#F1F1F1" height="2" style="stroke:#181818;stroke-width:0.5;" width="4" x="997.5" y="101.89"/><rect fill="#F1F1F1" height="2" style="stroke:#181818;stroke-width:0.5;" width="4" x="997.5" y="105.89"/><text fill="#000000" font-family="sans-serif" font-size="14" font-weight="bold" lengthAdjust="spacing" textLength="60" x="909.5" y="127.8851">redisdb</text><text fill="#000000" font-family="sans-serif" font-size="14" lengthAdjust="spacing" textLength="4" x="909.5" y="144.182">&#160;</text><text fill="#000000" font-family="sans-serif" font-size="14" lengthAdjust="spacing" textLength="85" x="909.5" y="160.4789">image: redis</text><text fill="#000000" font-family="sans-serif" font-size="14" lengthAdjust="spacing" textLength="4" x="909.5" y="176.7757">&#160;</text></g><!--entity d67e34cc7ce3d3737b810083bd9b565b--><g id="elem_d67e34cc7ce3d3737b810083bd9b565b"><ellipse cx="957" cy="328.97" fill="#F1F1F1" rx="8" ry="8" style="stroke:#181818;stroke-width:0.5;"/><text fill="#000000" font-family="sans-serif" font-size="14" lengthAdjust="spacing" textLength="36" x="939" y="358.9651">6379</text></g><!--entity 04a565d19766ebe0348853b17c395bd1--><g id="elem_04a565d19766ebe0348853b17c395bd1"><rect fill="#F1F1F1" height="78.8906" rx="2.5" ry="2.5" style="stroke:#181818;stroke-width:0.5;" width="74" x="1290" y="103.04"/><rect fill="#F1F1F1" height="10" style="stroke:#181818;stroke-width:0.5;" width="15" x="1344" y="108.04"/><rect fill="#F1F1F1" height="2" style="stroke:#181818;stroke-width:0.5;" width="4" x="1342" y="110.04"/><rect fill="#F1F1F1" height="2" style="stroke:#181818;stroke-width:0.5;" width="4" x="1342" y="114.04"/><text fill="#000000" font-family="sans-serif" font-size="14" font-weight="bold" lengthAdjust="spacing" textLength="34" x="1305" y="136.0351">web</text><text fill="#000000" font-family="sans-serif" font-size="14" lengthAdjust="spacing" textLength="4" x="1305" y="152.332">&#160;</text><text fill="#000000" font-family="sans-serif" font-size="14" lengthAdjust="spacing" textLength="4" x="1305" y="168.6289">&#160;</text></g><!--entity fd433df176955d196b161b0a41a19970--><g id="elem_fd433df176955d196b161b0a41a19970"><ellipse cx="1364" cy="328.97" fill="#F1F1F1" rx="8" ry="8" style="stroke:#181818;stroke-width:0.5;"/><text fill="#000000" font-family="sans-serif" font-size="14" lengthAdjust="spacing" textLength="36" x="1346" y="358.9651">8000</text></g><!--entity 9f6cffcac53aa775e8e014e5f32f0d64--><g id="elem_9f6cffcac53aa775e8e014e5f32f0d64"><rect fill="#F1F1F1" height="39.2969" rx="2.5" ry="2.5" style="stroke:#181818;stroke-width:0.5;" width="131" x="1260.5" y="555.97"/><polygon fill="#F1F1F1" points="1374.5,560.97,1374.5,574.97,1386.5,574.97,1386.5,566.97,1380.5,560.97,1374.5,560.97" style="stroke:#181818;stroke-width:0.5;"/><line style="stroke:#181818;stroke-width:0.5;" x1="1380.5" x2="1380.5" y1="560.97" y2="566.97"/><line style="stroke:#181818;stroke-width:0.5;" x1="1386.5" x2="1380.5" y1="566.97" y2="566.97"/><text fill="#000000" font-family="sans-serif" font-size="14" lengthAdjust="spacing" textLength="101" x="1270.5" y="581.9651">/superb/media</text></g><!--entity 08b7fccb45858be7a476d4e427762e0d--><g id="elem_08b7fccb45858be7a476d4e427762e0d"><rect fill="#F1F1F1" height="78.8906" rx="2.5" ry="2.5" style="stroke:#181818;stroke-width:0.5;" width="89" x="1095.5" y="103.04"/><rect fill="#F1F1F1" height="10" style="stroke:#181818;stroke-width:0.5;" width="15" x="1164.5" y="108.04"/><rect fill="#F1F1F1" height="2" style="stroke:#181818;stroke-width:0.5;" width="4" x="1162.5" y="110.04"/><rect fill="#F1F1F1" height="2" style="stroke:#181818;stroke-width:0.5;" width="4" x="1162.5" y="114.04"/><text fill="#000000" font-family="sans-serif" font-size="14" font-weight="bold" lengthAdjust="spacing" textLength="49" x="1110.5" y="136.0351">celery</text><text fill="#000000" font-family="sans-serif" font-size="14" lengthAdjust="spacing" textLength="4" x="1110.5" y="152.332">&#160;</text><text fill="#000000" font-family="sans-serif" font-size="14" lengthAdjust="spacing" textLength="4" x="1110.5" y="168.6289">&#160;</text></g><!--entity 5e9a68b2053dd846be389294444721e3--><g id="elem_5e9a68b2053dd846be389294444721e3"><rect fill="#F1F1F1" height="39.2969" rx="2.5" ry="2.5" style="stroke:#181818;stroke-width:0.5;" width="131" x="1074.5" y="555.97"/><polygon fill="#F1F1F1" points="1188.5,560.97,1188.5,574.97,1200.5,574.97,1200.5,566.97,1194.5,560.97,1188.5,560.97" style="stroke:#181818;stroke-width:0.5;"/><line style="stroke:#181818;stroke-width:0.5;" x1="1194.5" x2="1194.5" y1="560.97" y2="566.97"/><line style="stroke:#181818;stroke-width:0.5;" x1="1200.5" x2="1194.5" y1="566.97" y2="566.97"/><text fill="#000000" font-family="sans-serif" font-size="14" lengthAdjust="spacing" textLength="101" x="1084.5" y="581.9651">/superb/media</text></g><!--entity dba3f4d0bb5aa6fcfa18da2c1f7a9775--><g id="elem_dba3f4d0bb5aa6fcfa18da2c1f7a9775"><ellipse cx="392" cy="465.97" fill="#F1F1F1" rx="8" ry="8" style="stroke:#181818;stroke-width:0.5;"/><text fill="#000000" font-family="sans-serif" font-size="14" lengthAdjust="spacing" textLength="18" x="383" y="495.9651">80</text></g><!--entity e771ba177215eb3092edcb43cf53c8a7--><g id="elem_e771ba177215eb3092edcb43cf53c8a7"><ellipse cx="868" cy="465.97" fill="#F1F1F1" rx="8" ry="8" style="stroke:#181818;stroke-width:0.5;"/><text fill="#000000" font-family="sans-serif" font-size="14" lengthAdjust="spacing" textLength="36" x="850" y="495.9651">5432</text></g><!--entity c896127ab1831787795a6fc7c8465c9a--><g id="elem_c896127ab1831787795a6fc7c8465c9a"><ellipse cx="957" cy="465.97" fill="#F1F1F1" rx="8" ry="8" style="stroke:#181818;stroke-width:0.5;"/><text fill="#000000" font-family="sans-serif" font-size="14" lengthAdjust="spacing" textLength="36" x="939" y="495.9651">6379</text></g><!--entity 1624c420083928ef3e240dd88f2e52f0--><g id="elem_1624c420083928ef3e240dd88f2e52f0"><ellipse cx="1450" cy="465.97" fill="#F1F1F1" rx="8" ry="8" style="stroke:#181818;stroke-width:0.5;"/><text fill="#000000" font-family="sans-serif" font-size="14" lengthAdjust="spacing" textLength="36" x="1432" y="495.9651">8000</text></g><!--entity a6109f77bb6e387d5afeb1cf9ab724a9--><g id="elem_a6109f77bb6e387d5afeb1cf9ab724a9"><rect fill="#F1F1F1" height="39.2969" rx="2.5" ry="2.5" style="stroke:#181818;stroke-width:0.5;" width="86" x="57" y="674.26"/><polygon fill="#F1F1F1" points="126,679.26,126,693.26,138,693.26,138,685.26,132,679.26,126,679.26" style="stroke:#181818;stroke-width:0.5;"/><line style="stroke:#181818;stroke-width:0.5;" x1="132" x2="132" y1="679.26" y2="685.26"/><line style="stroke:#181818;stroke-width:0.5;" x1="138" x2="132" y1="685.26" y2="685.26"/><text fill="#000000" font-family="sans-serif" font-size="14" lengthAdjust="spacing" textLength="56" x="67" y="700.2551">./media/</text></g><!--entity 5ef95d55eaa5ff88fda3b8de4efdc066--><g id="elem_5ef95d55eaa5ff88fda3b8de4efdc066"><rect fill="#F1F1F1" height="39.2969" rx="2.5" ry="2.5" style="stroke:#181818;stroke-width:0.5;" width="81" x="227.5" y="674.26"/><polygon fill="#F1F1F1" points="291.5,679.26,291.5,693.26,303.5,693.26,303.5,685.26,297.5,679.26,291.5,679.26" style="stroke:#181818;stroke-width:0.5;"/><line style="stroke:#181818;stroke-width:0.5;" x1="297.5" x2="297.5" y1="679.26" y2="685.26"/><line style="stroke:#181818;stroke-width:0.5;" x1="303.5" x2="297.5" y1="685.26" y2="685.26"/><text fill="#000000" font-family="sans-serif" font-size="14" lengthAdjust="spacing" textLength="51" x="237.5" y="700.2551">./static/</text></g><!--entity 9c99eebd30d8ae58f6f3871c94922ed3--><g id="elem_9c99eebd30d8ae58f6f3871c94922ed3"><rect fill="#F1F1F1" height="39.2969" rx="2.5" ry="2.5" style="stroke:#181818;stroke-width:0.5;" width="119" x="570.5" y="674.26"/><polygon fill="#F1F1F1" points="672.5,679.26,672.5,693.26,684.5,693.26,684.5,685.26,678.5,679.26,672.5,679.26" style="stroke:#181818;stroke-width:0.5;"/><line style="stroke:#181818;stroke-width:0.5;" x1="678.5" x2="678.5" y1="679.26" y2="685.26"/><line style="stroke:#181818;stroke-width:0.5;" x1="684.5" x2="678.5" y1="685.26" y2="685.26"/><text fill="#000000" font-family="sans-serif" font-size="14" lengthAdjust="spacing" textLength="89" x="580.5" y="700.2551">./postgresdb</text></g><!--entity ff02fee0f7d12d656c8629c635b1be95--><g id="elem_ff02fee0f7d12d656c8629c635b1be95"><rect fill="#F1F1F1" height="39.2969" rx="2.5" ry="2.5" style="stroke:#181818;stroke-width:0.5;" width="81" x="1192.5" y="674.26"/><polygon fill="#F1F1F1" points="1256.5,679.26,1256.5,693.26,1268.5,693.26,1268.5,685.26,1262.5,679.26,1256.5,679.26" style="stroke:#181818;stroke-width:0.5;"/><line style="stroke:#181818;stroke-width:0.5;" x1="1262.5" x2="1262.5" y1="679.26" y2="685.26"/><line style="stroke:#181818;stroke-width:0.5;" x1="1268.5" x2="1262.5" y1="685.26" y2="685.26"/><text fill="#000000" font-family="sans-serif" font-size="14" lengthAdjust="spacing" textLength="51" x="1202.5" y="700.2551">./media</text></g><!--link af7a7f0b3b2e57bd500b4dc604f1838f to 97b04832e42a04c7beb04c21e560b3fb--><g id="link_af7a7f0b3b2e57bd500b4dc604f1838f_97b04832e42a04c7beb04c21e560b3fb"><path codeLine="62" d="M256.21,182.16 C271.43,226.74 295.39,296.89 303.34,320.17 " fill="none" id="af7a7f0b3b2e57bd500b4dc604f1838f-97b04832e42a04c7beb04c21e560b3fb" style="stroke:#181818;stroke-width:1.0;"/></g><!--link 97b04832e42a04c7beb04c21e560b3fb to dba3f4d0bb5aa6fcfa18da2c1f7a9775--><g id="link_97b04832e42a04c7beb04c21e560b3fb_dba3f4d0bb5aa6fcfa18da2c1f7a9775"><path codeLine="63" d="M310.87,337.61 C325.94,361.26 371.69,433.08 386.97,457.07 " fill="none" id="97b04832e42a04c7beb04c21e560b3fb-dba3f4d0bb5aa6fcfa18da2c1f7a9775" style="stroke:#181818;stroke-width:1.0;"/></g><!--link 0ce7713bd005f3e5d60cfdcc4ded6604 to a6109f77bb6e387d5afeb1cf9ab724a9--><g id="link_0ce7713bd005f3e5d60cfdcc4ded6604_a6109f77bb6e387d5afeb1cf9ab724a9"><path codeLine="64" d="M100,595.56 C100,617.18 100,652.35 100,673.98 " fill="none" id="0ce7713bd005f3e5d60cfdcc4ded6604-a6109f77bb6e387d5afeb1cf9ab724a9" style="stroke:#181818;stroke-width:1.0;"/><text fill="#000000" font-family="sans-serif" font-size="13" lengthAdjust="spacing" textLength="14" x="101" y="640.3269">rw</text></g><!--link af7a7f0b3b2e57bd500b4dc604f1838f to 0ce7713bd005f3e5d60cfdcc4ded6604--><g id="link_af7a7f0b3b2e57bd500b4dc604f1838f_0ce7713bd005f3e5d60cfdcc4ded6604"><path codeLine="65" d="M230.18,182.12 C200.5,271.62 129.7987,484.765 108.1087,550.165 " fill="none" id="af7a7f0b3b2e57bd500b4dc604f1838f-to-0ce7713bd005f3e5d60cfdcc4ded6604" style="stroke:#181818;stroke-width:1.0;stroke-dasharray:7.0,7.0;"/><polygon fill="#181818" points="106.22,555.86,112.8498,548.5767,107.794,551.1142,105.2565,546.0584,106.22,555.86" style="stroke:#181818;stroke-width:1.0;"/><text fill="#000000" font-family="sans-serif" font-size="13" lengthAdjust="spacing" textLength="23" x="162" y="403.0369">use</text></g><!--link bbca5c38524576ee350a6571424c62a6 to 5ef95d55eaa5ff88fda3b8de4efdc066--><g id="link_bbca5c38524576ee350a6571424c62a6_5ef95d55eaa5ff88fda3b8de4efdc066"><path codeLine="66" d="M268,595.56 C268,617.18 268,652.35 268,673.98 " fill="none" id="bbca5c38524576ee350a6571424c62a6-5ef95d55eaa5ff88fda3b8de4efdc066" style="stroke:#181818;stroke-width:1.0;"/><text fill="#000000" font-family="sans-serif" font-size="13" lengthAdjust="spacing" textLength="14" x="269" y="640.3269">rw</text></g><!--link af7a7f0b3b2e57bd500b4dc604f1838f to bbca5c38524576ee350a6571424c62a6--><g id="link_af7a7f0b3b2e57bd500b4dc604f1838f_bbca5c38524576ee350a6571424c62a6"><path codeLine="67" d="M245.24,182.12 C250.43,271.62 262.7729,484.47 266.5629,549.87 " fill="none" id="af7a7f0b3b2e57bd500b4dc604f1838f-to-bbca5c38524576ee350a6571424c62a6" style="stroke:#181818;stroke-width:1.0;stroke-dasharray:7.0,7.0;"/><polygon fill="#181818" points="266.91,555.86,270.3826,546.6437,266.6207,550.8684,262.396,547.1065,266.91,555.86" style="stroke:#181818;stroke-width:1.0;"/><text fill="#000000" font-family="sans-serif" font-size="13" lengthAdjust="spacing" textLength="23" x="259" y="403.0369">use</text></g><!--link 086f471fbe3ab94b73c9798cd7d205b7 to 9c41b0dc0d9393d8a4c1a8e0ff9f1547--><g id="link_086f471fbe3ab94b73c9798cd7d205b7_9c41b0dc0d9393d8a4c1a8e0ff9f1547"><path codeLine="68" d="M685.54,239.24 C705.08,272.93 724.26,305.99 732.62,320.42 " fill="none" id="086f471fbe3ab94b73c9798cd7d205b7-9c41b0dc0d9393d8a4c1a8e0ff9f1547" style="stroke:#181818;stroke-width:1.0;"/></g><!--link 9c41b0dc0d9393d8a4c1a8e0ff9f1547 to e771ba177215eb3092edcb43cf53c8a7--><g id="link_9c41b0dc0d9393d8a4c1a8e0ff9f1547_e771ba177215eb3092edcb43cf53c8a7"><path codeLine="69" d="M744.42,337.61 C767.37,361.26 837.06,433.08 860.34,457.07 " fill="none" id="9c41b0dc0d9393d8a4c1a8e0ff9f1547-e771ba177215eb3092edcb43cf53c8a7" style="stroke:#181818;stroke-width:1.0;"/></g><!--link be37e40b068362ad529067845ac94bd0 to 9c99eebd30d8ae58f6f3871c94922ed3--><g id="link_be37e40b068362ad529067845ac94bd0_9c99eebd30d8ae58f6f3871c94922ed3"><path codeLine="70" d="M630,595.56 C630,617.18 630,652.35 630,673.98 " fill="none" id="be37e40b068362ad529067845ac94bd0-9c99eebd30d8ae58f6f3871c94922ed3" style="stroke:#181818;stroke-width:1.0;"/><text fill="#000000" font-family="sans-serif" font-size="13" lengthAdjust="spacing" textLength="14" x="631" y="640.3269">rw</text></g><!--link 086f471fbe3ab94b73c9798cd7d205b7 to be37e40b068362ad529067845ac94bd0--><g id="link_086f471fbe3ab94b73c9798cd7d205b7_be37e40b068362ad529067845ac94bd0"><path codeLine="71" d="M630,239.43 C630,343.4 630,495.68 630,549.75 " fill="none" id="086f471fbe3ab94b73c9798cd7d205b7-to-be37e40b068362ad529067845ac94bd0" style="stroke:#181818;stroke-width:1.0;stroke-dasharray:7.0,7.0;"/><polygon fill="#181818" points="630,555.75,634,546.75,630,550.75,626,546.75,630,555.75" style="stroke:#181818;stroke-width:1.0;"/><text fill="#000000" font-family="sans-serif" font-size="13" lengthAdjust="spacing" textLength="23" x="631" y="403.0369">use</text></g><!--link 03f627c9591624f131d65303590644fa to d67e34cc7ce3d3737b810083bd9b565b--><g id="link_03f627c9591624f131d65303590644fa_d67e34cc7ce3d3737b810083bd9b565b"><path codeLine="72" d="M957,190.51 C957,235.14 957,298.51 957,320.28 " fill="none" id="03f627c9591624f131d65303590644fa-d67e34cc7ce3d3737b810083bd9b565b" style="stroke:#181818;stroke-width:1.0;"/></g><!--link d67e34cc7ce3d3737b810083bd9b565b to c896127ab1831787795a6fc7c8465c9a--><g id="link_d67e34cc7ce3d3737b810083bd9b565b_c896127ab1831787795a6fc7c8465c9a"><path codeLine="73" d="M957,337.61 C957,361.26 957,433.08 957,457.07 " fill="none" id="d67e34cc7ce3d3737b810083bd9b565b-c896127ab1831787795a6fc7c8465c9a" style="stroke:#181818;stroke-width:1.0;"/></g><!--link 04a565d19766ebe0348853b17c395bd1 to fd433df176955d196b161b0a41a19970--><g id="link_04a565d19766ebe0348853b17c395bd1_fd433df176955d196b161b0a41a19970"><path codeLine="74" d="M1334.76,182.16 C1343.7,226.74 1357.77,296.89 1362.44,320.17 " fill="none" id="04a565d19766ebe0348853b17c395bd1-fd433df176955d196b161b0a41a19970" style="stroke:#181818;stroke-width:1.0;"/></g><!--link fd433df176955d196b161b0a41a19970 to 1624c420083928ef3e240dd88f2e52f0--><g id="link_fd433df176955d196b161b0a41a19970_1624c420083928ef3e240dd88f2e52f0"><path codeLine="75" d="M1368.87,337.61 C1383.94,361.26 1429.69,433.08 1444.97,457.07 " fill="none" id="fd433df176955d196b161b0a41a19970-1624c420083928ef3e240dd88f2e52f0" style="stroke:#181818;stroke-width:1.0;"/></g><!--link 9f6cffcac53aa775e8e014e5f32f0d64 to ff02fee0f7d12d656c8629c635b1be95--><g id="link_9f6cffcac53aa775e8e014e5f32f0d64_ff02fee0f7d12d656c8629c635b1be95"><path codeLine="76" d="M1310.85,595.56 C1293.56,617.18 1265.43,652.35 1248.14,673.98 " fill="none" id="9f6cffcac53aa775e8e014e5f32f0d64-ff02fee0f7d12d656c8629c635b1be95" style="stroke:#181818;stroke-width:1.0;"/><text fill="#000000" font-family="sans-serif" font-size="13" lengthAdjust="spacing" textLength="14" x="1286" y="640.3269">rw</text></g><!--link 04a565d19766ebe0348853b17c395bd1 to 9f6cffcac53aa775e8e014e5f32f0d64--><g id="link_04a565d19766ebe0348853b17c395bd1_9f6cffcac53aa775e8e014e5f32f0d64"><path codeLine="77" d="M1324.78,182.37 C1323.08,214.02 1320.9,259.86 1320,299.97 C1317.85,396.04 1322.5031,505.0374 1324.7131,549.6374 " fill="none" id="04a565d19766ebe0348853b17c395bd1-to-9f6cffcac53aa775e8e014e5f32f0d64" style="stroke:#181818;stroke-width:1.0;stroke-dasharray:7.0,7.0;"/><polygon fill="#181818" points="1325.01,555.63,1328.5597,546.4431,1324.7625,550.6361,1320.5695,546.839,1325.01,555.63" style="stroke:#181818;stroke-width:1.0;"/><text fill="#000000" font-family="sans-serif" font-size="13" lengthAdjust="spacing" textLength="23" x="1320" y="403.0369">use</text></g><!--link 5e9a68b2053dd846be389294444721e3 to ff02fee0f7d12d656c8629c635b1be95--><g id="link_5e9a68b2053dd846be389294444721e3_ff02fee0f7d12d656c8629c635b1be95"><path codeLine="78" d="M1155.15,595.56 C1172.44,617.18 1200.57,652.35 1217.86,673.98 " fill="none" id="5e9a68b2053dd846be389294444721e3-ff02fee0f7d12d656c8629c635b1be95" style="stroke:#181818;stroke-width:1.0;"/><text fill="#000000" font-family="sans-serif" font-size="13" lengthAdjust="spacing" textLength="14" x="1193" y="640.3269">rw</text></g><!--link 08b7fccb45858be7a476d4e427762e0d to 5e9a68b2053dd846be389294444721e3--><g id="link_08b7fccb45858be7a476d4e427762e0d_5e9a68b2053dd846be389294444721e3"><path codeLine="79" d="M1140,182.12 C1140,271.62 1140,484.46 1140,549.86 " fill="none" id="08b7fccb45858be7a476d4e427762e0d-to-5e9a68b2053dd846be389294444721e3" style="stroke:#181818;stroke-width:1.0;stroke-dasharray:7.0,7.0;"/><polygon fill="#181818" points="1140,555.86,1144,546.86,1140,550.86,1136,546.86,1140,555.86" style="stroke:#181818;stroke-width:1.0;"/><text fill="#000000" font-family="sans-serif" font-size="13" lengthAdjust="spacing" textLength="23" x="1141" y="403.0369">use</text></g><!--SRC=[bLLTQrj747s_l-AYfzPWQxzcFmmkf4re2oKsijCyb19cTcUDG1-kfCG9fV-zeol9bP8wI_naNMPdpfmpSmPdi-NZVFfnkhZl5il2_UZr_NJnSTJZkcTsrYbZSusfX5B9wEfjyQwgAXzS_tVNv-NyORdWnQR76Z1KHPOCGw02If4hsIjNTRInzdzqPsUBRVApiwxh_ko- -xuVHJLKIe6KYzQmCwXS3iJoEnlDu2LXfGvNcsd5lEb7u_Nx1rxHUCvbYkFXjSeSWhPKb89g6OfNkPQSNU7YfVx_l5vlS3FDk-T46I7R2CP1yCmM57e8sXcNlK7V_RDdvcQvtjolUBqZ9wAB7kIPPXEpJqM1yg2Yq1HgXbDoLFJL1Ls9BL9o56nE8SKij1e550Po7lRvj_nCvtZFb_tXqwM6SvmzJ1VSoQ-DD7JPu-mHFwqxNdoOhfQBkPIvx6-kR-z-dhowVVVonwl3sqBFnBovVJMvmZAVBfu9k7bnU_lsUlBoIXlhu3JezrydTszU_FRk5mb-jjGXwEPwSdS5pfg3xjl_TyfdfqcLh4gooHOXDMkCh6fDLOCBnzfzmDLuDgNneTfVit713Uv4P1lOAL8-MX6jW4dAX-W0iz1Tr9E84vaRmRahxhL9qHcopDbdvshog3LBiymLwJCDRVKcv0H9UoD3RNKH_PK5gIHFST1mjKj_9E7mvT2tjo4DfOiFKYRdaDaM6soWg9MACiI9m0CzuNtBEwm6V41W6Hi5J06poG9TMSlAQzdFpx0wb2n5f-0z4olhOWHBEcIRW8eUi3uodQoYsYrZBSxQKdNm2ROfF6al6g7Jg9EKVsuPTvHMdslDcC4YXW0iMch7ifUcAh6Efxv-uXclFksuS94mM-z4DjO-HrIaROsX078gNwmIoNvbSX0X4WTqmHSdpX62DwpAq5eUik-x-nfUu8G-aYoXBIKwBtCKaqbE_eBuZnMyHpvL26rrHH41eg-veeu5JTRYVKcwFPtjhIiHwY29H3Ahak4YkCLFmKgJuNGYSjoEOq0IjzGXXf1WMo9aGGKvuQb8sn7Cpcn79fd8Odl6AUaWLd5VeVgewOjZhqIlLQeX47dfTCjmPTAv9gHW7AQJTySk2LmJ5016X5gbJa5BiR1ZiLhb_Sd3__nWl-GfCLEnIXQS8LPVfRQMpKn6EB5VWjqDObMcidX1ADh8hibaU9Eojq2QE47NF3ddvRnzMre1GvQcygqZD6HfiTzVzgFLuwZTsCL5kRZueNdvjldUhtdKjMxSWAubyRUYQnOze6jUnq77rgLe1GnPcZlPEYHxB5yVw0DJpSOEJBMAFZ7Lka73hBPkIojWoDBqe-QDsMPf7fDMm92bwNQjixF3ql2J9zLQZUrLQnOzgDOwCj-6hdN_zkYQHVVe_WK0]--></g></svg>